<svg xmlns="http://www.w3.org/2000/svg" width="171" height="171" viewBox="0 0 171 171">
  <g id="Exclusion_1" data-name="Exclusion 1" fill="navy">
    <path d="M 85.5 170.5 C 79.73252105712891 170.5 73.96882629394531 169.9189758300781 68.36900329589844 168.7730865478516 C 62.91186904907227 167.6564178466797 57.5439338684082 165.9901123046875 52.41434860229492 163.8204803466797 C 47.37771606445312 161.6901702880859 42.52000045776367 159.0534820556641 37.9760856628418 155.9836273193359 C 33.4750862121582 152.9428253173828 29.24252128601074 149.4506378173828 25.39593505859375 145.6040649414062 C 21.54952239990234 141.7576446533203 18.05732536315918 137.5250854492188 15.01636981964111 133.0239410400391 C 11.94645690917969 128.4798889160156 9.309761047363281 123.6221542358398 7.179521560668945 118.5856704711914 C 5.009912967681885 113.4561309814453 3.343608617782593 108.0882186889648 2.226912975311279 102.6309967041016 C 1.081021785736084 97.03119659423828 0.5 91.26750183105469 0.5 85.5 C 0.5 79.73252105712891 1.081021785736084 73.96882629394531 2.226912975311279 68.36900329589844 C 3.343586921691895 62.91186904907227 5.009891510009766 57.5439338684082 7.179521560668945 52.41434860229492 C 9.309782981872559 47.37780380249023 11.94647789001465 42.52006530761719 15.01636981964111 37.9760856628418 C 18.05732536315918 33.47491455078125 21.54952239990234 29.24234771728516 25.39593505859375 25.39595603942871 C 29.24234771728516 21.54952239990234 33.47491455078125 18.05732536315918 37.9760856628418 15.01636981964111 C 42.52006530761719 11.94647789001465 47.37780380249023 9.309782981872559 52.41434860229492 7.179521560668945 C 57.5439338684082 5.009891510009766 62.91186904907227 3.343586921691895 68.36900329589844 2.226912975311279 C 73.96882629394531 1.081021785736084 79.73252105712891 0.5 85.5 0.5 C 91.26750183105469 0.5 97.03119659423828 1.081021785736084 102.6309967041016 2.226912975311279 C 108.0882186889648 3.343608617782593 113.4561309814453 5.009912967681885 118.5856704711914 7.179521560668945 C 123.6221542358398 9.309761047363281 128.4798889160156 11.94645690917969 133.0239410400391 15.01636981964111 C 137.5250854492188 18.05732536315918 141.7576446533203 21.54952239990234 145.6040802001953 25.39593505859375 C 149.4506378173828 29.24252128601074 152.9428253173828 33.4750862121582 155.9836273193359 37.9760856628418 C 159.0534820556641 42.52000045776367 161.6901702880859 47.37771606445312 163.8204803466797 52.41434860229492 C 165.9901123046875 57.5439338684082 167.6564178466797 62.91186904907227 168.7730865478516 68.36900329589844 C 169.9189758300781 73.96882629394531 170.5 79.73252105712891 170.5 85.5 C 170.5 91.26750183105469 169.9189758300781 97.03119659423828 168.7730865478516 102.6309967041016 C 167.6563873291016 108.0882186889648 165.9900817871094 113.4561309814453 163.8204803466797 118.5856704711914 C 161.6902465820312 123.6221542358398 159.0535430908203 128.4798889160156 155.9836273193359 133.0239410400391 C 152.94287109375 137.5248718261719 149.4506683349609 141.7574310302734 145.6040649414062 145.6040802001953 C 141.7574310302734 149.4506683349609 137.5248718261719 152.94287109375 133.0239410400391 155.9836273193359 C 128.4798889160156 159.0535430908203 123.6221542358398 161.6902465820312 118.5856704711914 163.8204803466797 C 113.4561309814453 165.9900817871094 108.0882186889648 167.6563873291016 102.6309967041016 168.7730865478516 C 97.03119659423828 169.9189758300781 91.26750183105469 170.5 85.5 170.5 Z M 86.00038909912109 8.5 C 75.53819274902344 8.5 65.38864898681641 10.54917430877686 55.83369445800781 14.59060859680176 C 51.24147796630859 16.53295707702637 46.81221771240234 18.93708610534668 42.6689338684082 21.7362174987793 C 38.5651741027832 24.50869560241699 34.70628356933594 27.69256591796875 31.19943428039551 31.19943428039551 C 27.69256591796875 34.70628356933594 24.50869560241699 38.5651741027832 21.7362174987793 42.6689338684082 C 18.93708610534668 46.81221771240234 16.53295707702637 51.24147796630859 14.59060859680176 55.83369445800781 C 10.54917430877686 65.38864898681641 8.5 75.53819274902344 8.5 86.00038909912109 C 8.5 96.46256256103516 10.54917430877686 106.6120681762695 14.59060859680176 116.1669769287109 C 16.53304290771484 120.7593231201172 18.93717384338379 125.1885223388672 21.7362174987793 129.3315887451172 C 24.50865173339844 133.4352569580078 27.69254302978516 137.2941131591797 31.19943428039551 140.8009338378906 C 34.70628356933594 144.3077392578125 38.5651969909668 147.4915618896484 42.6689567565918 150.2639770507812 C 46.81206512451172 153.0630035400391 51.24132537841797 155.4670715332031 55.83369445800781 157.4094543457031 C 65.388671875 161.4508056640625 75.53821563720703 163.4999389648438 86.00038909912109 163.4999389648438 C 96.46256256103516 163.4999389648438 106.6120681762695 161.4508056640625 116.1669769287109 157.4094543457031 C 120.7593078613281 155.4670715332031 125.1885223388672 153.0629730224609 129.3315887451172 150.2639770507812 C 133.4352874755859 147.4915924072266 137.2941284179688 144.3077392578125 140.8009338378906 140.8009185791016 C 144.3077392578125 137.2941284179688 147.4915924072266 133.4352874755859 150.2639770507812 129.3315887451172 C 153.0629730224609 125.1885223388672 155.4670715332031 120.7593078613281 157.4094543457031 116.1669769287109 C 161.4508056640625 106.6120681762695 163.4999389648438 96.46256256103516 163.4999389648438 86.00038909912109 C 163.4999389648438 75.53821563720703 161.4508056640625 65.388671875 157.4094543457031 55.83369445800781 C 155.4670715332031 51.24132537841797 153.0630035400391 46.81206512451172 150.2639770507812 42.6689567565918 C 147.4915618896484 38.5651969909668 144.3077392578125 34.70628356933594 140.8009338378906 31.19943428039551 C 137.2941131591797 27.69254302978516 133.4352569580078 24.50865173339844 129.3315887451172 21.7362174987793 C 125.1885223388672 18.93717384338379 120.7593231201172 16.53304290771484 116.1669769287109 14.59060859680176 C 106.6120681762695 10.54917430877686 96.46256256103516 8.5 86.00038909912109 8.5 Z" stroke="none"/>
    <path d="M 85.5 170 C 91.23389434814453 170 96.9638671875 169.4223937988281 102.53076171875 168.2832336425781 C 107.9556274414062 167.1731567382812 113.2917633056641 165.5167388916016 118.3909149169922 163.3599853515625 C 123.3976287841797 161.2423095703125 128.2267456054688 158.6211547851562 132.7440490722656 155.5693054199219 C 137.2185821533203 152.5463714599609 141.4263916015625 149.0746307373047 145.2505187988281 145.2505187988281 C 149.0746307373047 141.4263916015625 152.5463714599609 137.2185821533203 155.5693054199219 132.7440490722656 C 158.6211547851562 128.2267456054688 161.2423095703125 123.3976287841797 163.3599853515625 118.3909149169922 C 165.5167388916016 113.2917633056641 167.1731567382812 107.9556274414062 168.2832336425781 102.53076171875 C 169.4223937988281 96.9638671875 170 91.23389434814453 170 85.5 C 170 79.76612854003906 169.4223937988281 74.03615570068359 168.2832336425781 68.46923828125 C 167.1731719970703 63.04443359375 165.5167388916016 57.70832443237305 163.3599853515625 52.60910797119141 C 161.2422332763672 47.60223770141602 158.62109375 42.77315139770508 155.5693054199219 38.25597763061523 C 152.5463256835938 33.78136825561523 149.0745697021484 29.57356452941895 145.2505187988281 25.7495002746582 C 141.4266052246094 21.92558670043945 137.2188110351562 18.45382690429688 132.7440490722656 15.43069553375244 C 128.2267456054688 12.3788480758667 123.3976287841797 9.757695198059082 118.3909149169922 7.640021800994873 C 113.2917633056641 5.483260631561279 107.9556274414062 3.826847791671753 102.53076171875 2.716760873794556 C 96.9638671875 1.577608704566956 91.23389434814453 1 85.5 1 C 79.76612854003906 1 74.03615570068359 1.577608704566956 68.46923828125 2.716760873794556 C 63.04443359375 3.826826095581055 57.70832443237305 5.483260631561279 52.60910797119141 7.640021800994873 C 47.60232543945312 9.757717132568359 42.77321624755859 12.37887001037598 38.25597763061523 15.43069553375244 C 33.78119659423828 18.45382690429688 29.57339096069336 21.92558670043945 25.7495002746582 25.7495002746582 C 21.92558670043945 29.57339096069336 18.45382690429688 33.78119659423828 15.43069553375244 38.25597763061523 C 12.37887001037598 42.77321624755859 9.757717132568359 47.60232543945312 7.640021800994873 52.60910797119141 C 5.483260631561279 57.70832443237305 3.826826095581055 63.04443359375 2.716760873794556 68.46923828125 C 1.577608704566956 74.03615570068359 1 79.76612854003906 1 85.5 C 1 91.23389434814453 1.577608704566956 96.9638671875 2.716760873794556 102.53076171875 C 3.826847791671753 107.9556274414062 5.483260631561279 113.2917633056641 7.640021800994873 118.3909149169922 C 9.757695198059082 123.3976287841797 12.3788480758667 128.2267456054688 15.43067359924316 132.7440490722656 C 18.45382690429688 137.2188110351562 21.92558670043945 141.4266052246094 25.7495002746582 145.2505187988281 C 29.57356452941895 149.0745697021484 33.78136825561523 152.5463256835938 38.25597763061523 155.5693206787109 C 42.77315139770508 158.62109375 47.60223770141602 161.2422332763672 52.60910797119141 163.3599853515625 C 57.70832443237305 165.5167388916016 63.04443359375 167.1731719970703 68.46923828125 168.2832336425781 C 74.03615570068359 169.4223937988281 79.76612854003906 170 85.5 170 M 86.00038909912109 8 C 96.52984619140625 8 106.744873046875 10.06245613098145 116.3617630004883 14.13010883331299 C 120.9838256835938 16.08513069152832 125.4416732788086 18.50480461120605 129.6114807128906 21.32191276550293 C 133.7415161132812 24.11215209960938 137.6251525878906 27.31647872924805 141.1544799804688 30.84586906433105 C 144.6837768554688 34.37524032592773 147.8880615234375 38.25891494750977 150.6782989501953 42.38904190063477 C 153.4953765869141 46.55891418457031 155.9149932861328 51.01682662963867 157.8699493408203 55.63893508911133 C 161.9375152587891 65.25586700439453 163.9999389648438 75.47093200683594 163.9999389648438 86.00038909912109 C 163.9999389648438 96.52982330322266 161.9375152587891 106.744873046875 157.8699493408203 116.3617401123047 C 155.9149780273438 120.9838256835938 153.4953765869141 125.4416732788086 150.6782989501953 129.6114807128906 C 147.8880920410156 133.7415466308594 144.6838073730469 137.6251678466797 141.1544799804688 141.1544799804688 C 137.6251678466797 144.6838073730469 133.7415466308594 147.8880920410156 129.6114807128906 150.6782989501953 C 125.4416732788086 153.4953765869141 120.9838256835938 155.9149780273438 116.3617401123047 157.8699493408203 C 106.744873046875 161.9375152587891 96.52982330322266 163.9999389648438 86.00038909912109 163.9999389648438 C 75.47093200683594 163.9999389648438 65.25586700439453 161.9375152587891 55.63893508911133 157.8699493408203 C 51.01682662963867 155.9149932861328 46.55891418457031 153.4953765869141 42.38904190063477 150.6782989501953 C 38.25891494750977 147.8880615234375 34.37524032592773 144.6837768554688 30.84586906433105 141.1544799804688 C 27.31647872924805 137.6251525878906 24.11215209960938 133.7415161132812 21.32191276550293 129.6114807128906 C 18.50480461120605 125.4416732788086 16.08513069152832 120.9838256835938 14.13010883331299 116.3617630004883 C 10.06245613098145 106.744873046875 8 96.52984619140625 8 86.00038909912109 C 8 75.47091674804688 10.06245613098145 65.25584411621094 14.13010883331299 55.63893508911133 C 16.08502197265625 51.0169792175293 18.50469589233398 46.55906677246094 21.32189178466797 42.38904190063477 C 24.11219596862793 38.25891494750977 27.3165225982666 34.37521743774414 30.84586906433105 30.84586906433105 C 34.37521743774414 27.3165225982666 38.25891494750977 24.11219596862793 42.38904190063477 21.32189178466797 C 46.55906677246094 18.50469589233398 51.0169792175293 16.08502197265625 55.63893508911133 14.13010883331299 C 65.25584411621094 10.06245613098145 75.47091674804688 8 86.00038909912109 8 M 85.5 171 C 79.69891357421875 171 73.90149688720703 170.4155578613281 68.26876068115234 169.262939453125 C 62.77926254272461 168.1396331787109 57.37954330444336 166.4634552001953 52.21956634521484 164.2809753417969 C 47.15328216552734 162.1381378173828 42.26691436767578 159.4859161376953 37.69617462158203 156.3979339599609 C 33.16880416870117 153.3393096923828 28.91143417358398 149.8266448974609 25.04239082336426 145.9576263427734 C 21.17334747314453 142.0885925292969 17.66073989868164 137.8312225341797 14.60206508636475 133.3038482666016 C 11.51408672332764 128.7330474853516 8.861847877502441 123.8466720581055 6.719021797180176 118.7804565429688 C 4.536543369293213 113.6204986572266 2.860369682312012 108.2207412719727 1.737065196037292 102.7312393188477 C 0.5844348073005676 97.09851837158203 1.4210854715202e-14 91.30110931396484 1.4210854715202e-14 85.5 C 1.4210854715202e-14 79.69891357421875 0.5844348073005676 73.90149688720703 1.737065196037292 68.26876068115234 C 2.860369682312012 62.77926254272461 4.536543369293213 57.37954330444336 6.719021797180176 52.21956634521484 C 8.861869812011719 47.15328216552734 11.51410865783691 42.26691436767578 14.60206508636475 37.69617462158203 C 17.66073989868164 33.16878128051758 21.17334747314453 28.91141319274902 25.04239082336426 25.04239082336426 C 28.91141319274902 21.17334747314453 33.16878128051758 17.66073989868164 37.69617462158203 14.60206508636475 C 42.26691436767578 11.51410865783691 47.15328216552734 8.861869812011719 52.21956634521484 6.719021797180176 C 57.37954330444336 4.536543369293213 62.77926254272461 2.860369682312012 68.26876068115234 1.737065196037292 C 73.90149688720703 0.5844348073005676 79.69891357421875 1.4210854715202e-14 85.5 1.4210854715202e-14 C 91.30110931396484 1.4210854715202e-14 97.09851837158203 0.5844348073005676 102.7312393188477 1.737065196037292 C 108.2207412719727 2.860369682312012 113.6204986572266 4.536543369293213 118.7804565429688 6.719021797180176 C 123.8466720581055 8.861847877502441 128.7330474853516 11.51408672332764 133.3038482666016 14.60206508636475 C 137.8312225341797 17.66073989868164 142.0885925292969 21.17334747314453 145.9576263427734 25.04239082336426 C 149.8266448974609 28.91143417358398 153.3393096923828 33.16880416870117 156.3979339599609 37.69617462158203 C 159.4859161376953 42.26691436767578 162.1381378173828 47.15328216552734 164.2809753417969 52.21956634521484 C 166.4634552001953 57.37954330444336 168.1396331787109 62.77926254272461 169.262939453125 68.26876068115234 C 170.4155578613281 73.90149688720703 171 79.69891357421875 171 85.5 C 171 91.30110931396484 170.4155578613281 97.09851837158203 169.262939453125 102.7312393188477 C 168.1396331787109 108.2207412719727 166.4634552001953 113.6204986572266 164.2809753417969 118.7804565429688 C 162.1381530761719 123.8466720581055 159.4859161376953 128.7330474853516 156.3979339599609 133.3038482666016 C 153.3393096923828 137.8312225341797 149.8266448974609 142.0885620117188 145.9576263427734 145.9576263427734 C 142.0885620117188 149.8266448974609 137.8312225341797 153.3393096923828 133.3038482666016 156.3979339599609 C 128.7330474853516 159.4859161376953 123.8466720581055 162.1381530761719 118.7804565429688 164.2809753417969 C 113.6204986572266 166.4634552001953 108.2207412719727 168.1396331787109 102.7312393188477 169.262939453125 C 97.09851837158203 170.4155578613281 91.30110931396484 171 85.5 171 Z M 86.00038909912109 9 C 75.60547637939453 9 65.52145385742188 11.03589153289795 56.02847671508789 15.05110836029053 C 51.46586990356445 16.98093414306641 47.06526184082031 19.36954307556152 42.94884872436523 22.15052223205566 C 38.87149810791016 24.9051513671875 35.03736877441406 28.0685863494873 31.552978515625 31.552978515625 C 28.0685863494873 35.03736877441406 24.9051513671875 38.87149810791016 22.15052223205566 42.94884872436523 C 19.36954307556152 47.06526184082031 16.98093414306641 51.46586990356445 15.05110836029053 56.02847671508789 C 11.03589153289795 65.52145385742188 9 75.60547637939453 9 86.00038909912109 C 9 96.39530181884766 11.03589153289795 106.4792633056641 15.05110836029053 115.9721984863281 C 16.98095703125 120.5347595214844 19.36954307556152 124.9353485107422 22.15052223205566 129.0516815185547 C 24.90513038635254 133.1289520263672 28.0685863494873 136.9630432128906 31.552978515625 140.4473724365234 C 35.03741455078125 143.9317626953125 38.87154388427734 147.0951232910156 42.94884872436523 149.8496704101562 C 47.0651969909668 152.6305847167969 51.46580505371094 155.0191345214844 56.02847671508789 156.9489593505859 C 65.52147674560547 160.9640808105469 75.60547637939453 162.9999389648438 86.00038909912109 162.9999389648438 C 96.39530181884766 162.9999389648438 106.4792633056641 160.9640808105469 115.9721984863281 156.9489593505859 C 120.5347595214844 155.0191497802734 124.9353485107422 152.630615234375 129.0516815185547 149.8496704101562 C 133.1289367675781 147.0951232910156 136.9629974365234 143.9317626953125 140.4473724365234 140.4473724365234 C 143.9317626953125 136.9629974365234 147.0951232910156 133.1289367675781 149.8496704101562 129.0516815185547 C 152.630615234375 124.9353485107422 155.0191497802734 120.5347595214844 156.9489593505859 115.9721984863281 C 160.9640808105469 106.4792633056641 162.9999389648438 96.39530181884766 162.9999389648438 86.00038909912109 C 162.9999389648438 75.60547637939453 160.9640808105469 65.52147674560547 156.9489593505859 56.02847671508789 C 155.0191345214844 51.46580505371094 152.6305847167969 47.0651969909668 149.8496704101562 42.94884872436523 C 147.0951232910156 38.87154388427734 143.9317626953125 35.03741455078125 140.4473724365234 31.552978515625 C 136.9630432128906 28.0685863494873 133.1289520263672 24.90513038635254 129.0516815185547 22.15052223205566 C 124.9353485107422 19.36954307556152 120.5347595214844 16.98095703125 115.9721984863281 15.05110836029053 C 106.4792633056641 11.03589153289795 96.39530181884766 9 86.00038909912109 9 Z" stroke="none" fill="navy"/>
  </g>
</svg>
